{"glyphs":{":":{"x_min":0,"x_max":272,"ha":272,"o":"m 130 453 q 165 453 179 412 l 179 398 q 179 371 138 356 l 131 356 q 82 363 82 403 q 92 453 130 453 z m 125 126 l 132 126 q 169 126 179 83 l 179 74 q 179 42 132 30 q 82 39 82 79 q 92 126 125 126 z"},"$":{"x_min":0,"x_max":495,"ha":495,"o":"m 221 794 l 230 794 q 245 794 250 770 l 250 697 q 302 693 355 645 q 373 628 373 622 l 373 610 q 373 596 348 592 q 340 592 311 625 q 292 640 250 653 l 250 404 q 340 371 375 306 q 401 255 401 210 q 401 82 270 25 l 250 21 l 250 -49 q 244 -75 228 -75 q 201 -69 201 -51 l 201 0 q 201 14 148 21 q 69 48 36 103 l 35 109 q 39 133 59 133 q 72 133 103 95 q 149 64 201 61 l 201 366 q 132 387 109 420 q 63 468 63 529 l 63 542 q 63 628 151 681 q 179 694 201 694 l 201 773 q 208 794 221 794 z m 110 533 l 110 518 q 110 450 201 400 l 201 643 q 110 598 110 533 z m 250 349 l 250 65 l 267 65 q 352 115 352 190 l 352 209 q 352 286 250 349 z"},"?":{"x_min":0,"x_max":479,"ha":479,"o":"m 230 688 q 313 688 380 614 q 427 555 427 485 q 427 398 350 331 q 259 281 259 185 q 255 159 236 159 q 211 165 211 178 l 211 193 q 211 301 329 374 q 379 424 379 491 q 379 577 289 627 q 249 640 225 640 q 136 640 86 545 l 73 483 q 63 470 55 470 q 28 475 28 493 q 28 586 121 656 q 177 688 230 688 z m 230 84 l 236 84 q 260 84 270 54 l 270 44 q 263 9 232 9 q 195 17 195 45 q 195 78 230 84 z"},"<":{"x_min":0,"x_max":495,"ha":495,"o":"m 392 526 q 418 519 418 501 l 418 497 q 418 477 357 448 q 354 443 137 310 q 157 290 411 132 q 418 124 418 114 l 418 112 q 418 91 390 87 q 380 87 326 125 l 65 286 q 56 296 56 306 q 56 327 104 348 q 380 526 389 526 z"},"'":{"x_min":0,"x_max":169,"ha":169,"o":"m 70 743 q 97 736 97 722 q 87 582 82 582 l 68 578 q 57 578 55 627 l 45 715 q 50 743 70 743 z"},"=":{"x_min":0,"x_max":495,"ha":495,"o":"m 91 395 l 390 395 q 409 395 415 368 q 409 343 390 343 l 91 343 q 70 343 66 371 q 73 395 91 395 z m 95 232 l 387 232 q 415 227 415 207 q 410 181 390 181 l 87 181 q 71 181 66 210 q 66 226 95 232 z"},"a":{"x_min":0,"x_max":585,"ha":585,"o":"m 258 487 q 393 487 472 355 q 496 302 496 244 l 496 33 q 496 16 472 12 l 471 12 q 456 12 449 30 l 449 29 l 451 74 l 451 105 q 353 12 265 12 l 251 12 q 130 12 50 134 q 21 192 21 251 q 21 384 151 461 q 206 487 258 487 z m 67 253 l 67 248 q 67 132 184 73 q 222 59 251 59 l 265 59 q 363 59 426 156 q 449 202 449 244 l 449 251 q 449 364 338 423 q 299 440 258 440 l 256 440 q 138 440 79 318 q 67 280 67 253 z"},"L":{"x_min":0,"x_max":487,"ha":487,"o":"m 42 688 l 47 688 q 70 683 70 670 l 70 60 l 383 60 q 402 60 406 34 q 399 12 383 12 l 45 12 q 27 12 22 38 l 22 659 q 25 688 42 688 z"},"3":{"x_min":0,"x_max":466,"ha":466,"o":"m 206 687 q 281 687 337 618 q 368 577 368 526 l 368 519 q 368 448 294 384 q 397 309 397 210 q 397 107 300 40 q 250 12 201 12 l 196 12 q 80 12 16 132 q 0 176 0 211 q 0 227 27 232 q 43 232 47 207 q 47 122 138 72 q 171 60 201 60 q 292 60 337 153 q 348 182 348 203 l 348 217 q 348 303 253 350 l 194 363 q 182 372 182 383 l 182 385 q 182 407 220 407 q 262 407 305 461 q 322 496 322 524 q 322 591 257 627 q 233 640 203 640 q 126 640 94 557 q 89 513 87 513 q 74 498 68 498 q 42 504 42 517 l 42 526 q 42 615 132 668 q 166 685 206 687 z"},";":{"x_min":0,"x_max":272,"ha":272,"o":"m 118 440 q 153 440 167 399 l 167 386 q 167 358 126 343 l 119 343 q 70 351 70 391 q 80 440 118 440 z m 130 114 q 180 114 180 32 l 180 30 q 180 -52 81 -84 l 75 -84 q 62 -82 62 -73 l 62 -67 q 65 -54 76 -54 l 91 -57 q 150 -25 150 24 l 131 18 q 80 25 80 65 q 80 100 118 114 z"},"J":{"x_min":0,"x_max":499,"ha":499,"o":"m 409 690 l 415 690 q 431 690 436 667 l 436 217 q 436 107 332 40 q 284 12 233 12 l 224 12 q 123 12 54 111 q 22 163 22 217 q 28 242 42 242 l 49 242 q 72 242 72 196 q 76 151 125 99 q 173 60 229 60 q 341 60 382 176 q 388 198 388 219 l 388 668 q 392 690 409 690 z"},"V":{"x_min":0,"x_max":608,"ha":608,"o":"m 44 691 q 64 691 82 623 l 267 132 l 285 132 l 490 682 q 500 691 510 691 l 512 691 q 530 691 534 667 l 302 41 q 295 12 276 12 l 275 12 q 251 12 236 76 q 17 656 17 665 l 17 668 q 17 687 44 691 z"},"\"":{"x_min":0,"x_max":272,"ha":272,"o":"m 64 749 q 90 742 90 729 q 81 588 75 588 l 62 584 q 51 584 48 633 l 39 722 q 44 749 64 749 z m 188 749 q 202 749 209 723 q 196 592 195 592 q 187 584 185 584 l 183 584 q 167 584 167 639 l 158 729 q 158 744 188 749 z"},"7":{"x_min":0,"x_max":471,"ha":471,"o":"m 39 686 l 393 686 q 416 681 416 668 l 416 659 q 416 653 399 628 l 54 18 q 45 12 39 12 l 39 12 q 15 17 15 35 l 15 39 q 19 53 336 611 l 346 638 l 46 638 q 20 644 20 661 q 25 686 39 686 z"},"S":{"x_min":0,"x_max":452,"ha":452,"o":"m 209 689 q 294 689 349 614 l 350 610 l 350 601 q 350 587 326 583 q 318 583 285 620 q 248 643 215 643 l 204 643 q 135 643 100 571 q 91 553 91 534 l 91 519 q 91 439 187 404 q 246 404 313 349 q 378 284 378 205 q 378 109 295 47 q 245 12 183 12 q 83 12 19 97 l 17 107 q 21 129 40 129 q 53 129 82 94 q 132 59 174 59 l 190 59 q 272 59 322 150 q 330 181 330 196 l 330 214 q 330 295 238 345 l 143 372 q 44 428 44 521 l 44 534 q 44 624 142 675 q 178 689 209 689 z"},"}":{"x_min":0,"x_max":495,"ha":495,"o":"m 74 758 l 149 758 q 209 758 234 691 l 236 677 l 236 394 q 236 351 290 351 l 317 351 q 336 345 336 330 l 336 323 q 336 309 313 304 l 275 304 q 234 304 234 246 l 234 -25 q 234 -78 167 -104 l 147 -106 l 75 -106 q 52 -103 52 -83 l 52 -83 q 56 -59 72 -59 l 140 -59 q 187 -59 187 -18 l 187 257 q 187 294 214 328 q 189 364 189 387 l 189 670 q 189 711 142 711 l 72 711 q 56 711 52 734 q 56 758 74 758 z"},"Z":{"x_min":0,"x_max":621,"ha":621,"o":"m 36 689 l 534 689 q 551 689 555 666 l 555 665 q 555 655 518 611 l 91 60 l 531 60 q 555 57 555 37 l 555 36 q 551 12 532 12 l 40 12 q 21 12 17 40 q 17 48 103 156 l 479 642 l 42 642 q 17 647 17 665 q 22 689 36 689 z"},"x":{"x_min":0,"x_max":473,"ha":473,"o":"m 42 479 q 57 479 88 432 q 180 322 203 289 l 216 289 q 236 309 367 474 q 370 477 380 479 q 403 473 403 461 l 403 450 q 403 443 341 372 l 240 244 q 403 47 403 43 l 403 32 q 403 16 380 12 l 379 12 q 365 12 342 48 l 211 209 q 59 20 53 16 q 48 12 42 12 l 41 12 q 22 12 19 39 q 19 47 84 121 l 182 246 l 21 446 l 19 456 q 23 479 42 479 z"},")":{"x_min":0,"x_max":370,"ha":370,"o":"m 56 769 l 63 769 q 80 769 99 709 q 184 507 184 291 q 184 37 75 -186 q 66 -191 60 -191 l 56 -191 q 37 -191 33 -167 l 71 -71 q 135 111 135 289 q 135 513 34 740 l 33 744 q 37 769 56 769 z"},"&":{"x_min":0,"x_max":711,"ha":711,"o":"m 227 688 l 236 688 q 323 688 364 592 q 369 571 369 556 l 369 546 q 369 481 297 423 l 270 394 l 439 225 l 451 225 l 529 304 q 538 310 545 310 q 569 310 572 281 q 572 266 511 212 l 482 181 l 596 67 q 600 62 600 56 l 600 51 q 595 27 577 27 l 572 27 q 557 27 512 79 l 443 146 q 333 25 303 25 q 271 12 240 12 q 140 12 81 113 q 63 153 63 191 q 63 280 163 361 l 194 395 q 99 484 99 533 q 95 533 95 554 q 95 637 185 681 q 208 688 227 688 z m 148 562 l 148 546 q 148 503 227 438 l 237 438 q 317 507 317 546 l 317 554 q 317 608 252 634 l 231 636 q 178 636 152 580 z m 117 195 l 117 185 q 117 105 208 70 l 237 65 q 308 65 370 144 l 407 182 l 238 351 l 227 351 q 119 255 119 210 z"},"_":{"x_min":0,"x_max":468,"ha":468,"o":"m 24 -26 l 455 -26 q 480 -31 480 -48 l 480 -53 q 476 -76 458 -76 l 24 -76 q 4 -76 0 -49 q 7 -26 24 -26 z"},"v":{"x_min":0,"x_max":553,"ha":553,"o":"m 35 490 l 39 490 q 59 490 77 437 l 246 91 q 427 475 436 484 q 444 490 450 490 q 476 485 476 468 l 476 466 q 476 459 396 295 l 262 19 q 253 12 246 12 l 244 12 q 222 12 200 75 q 23 437 14 462 l 14 468 q 19 490 35 490 z"},"O":{"x_min":0,"x_max":779,"ha":779,"o":"m 357 688 q 528 688 643 530 q 695 440 695 349 q 695 180 542 67 q 455 12 360 12 l 353 12 q 179 12 68 175 q 19 256 19 352 q 19 514 161 625 q 253 688 357 688 z m 66 347 q 66 207 189 112 q 266 60 353 60 l 362 60 q 499 60 593 181 q 647 259 647 351 q 647 508 503 600 q 432 641 357 641 q 213 641 118 516 q 66 441 66 347 z"},"(":{"x_min":0,"x_max":370,"ha":370,"o":"m 282 767 l 287 767 q 309 763 309 746 l 309 743 l 273 646 q 208 471 208 288 q 208 59 310 -163 l 311 -167 q 306 -192 288 -192 l 284 -192 q 262 -192 245 -133 q 160 65 160 290 q 160 530 266 759 q 274 767 282 767 z"},"C":{"x_min":0,"x_max":666,"ha":666,"o":"m 367 689 q 472 689 561 626 q 565 618 565 613 l 565 609 q 565 589 539 586 l 540 586 l 478 618 q 410 640 367 640 q 230 640 130 514 q 80 430 80 351 q 80 190 230 96 q 297 62 364 62 l 369 62 q 454 62 537 113 l 543 113 q 565 108 565 92 l 565 87 q 565 57 451 23 q 414 12 373 12 l 364 12 q 197 12 84 167 q 31 257 31 351 q 31 526 191 637 q 277 689 367 689 z"},"W":{"x_min":0,"x_max":868,"ha":868,"o":"m 37 689 l 45 689 q 66 689 74 643 l 213 158 l 235 158 q 380 669 388 681 q 396 689 404 689 l 409 689 q 432 689 440 632 q 454 595 578 156 l 598 156 l 750 679 q 758 689 765 689 l 771 689 q 793 685 793 672 l 793 665 l 607 21 q 598 12 589 12 l 587 12 q 563 12 555 71 q 434 480 417 549 l 397 549 l 245 22 q 237 12 226 12 l 219 12 q 199 12 190 73 q 31 613 19 666 q 23 689 37 689 z"},"A":{"x_min":0,"x_max":582,"ha":582,"o":"m 259 685 q 283 685 297 626 q 519 49 521 38 l 521 33 q 521 16 497 12 l 496 12 q 474 12 462 66 l 376 289 l 145 289 l 42 19 q 34 12 26 12 l 23 12 q 0 17 0 35 l 62 201 q 226 628 239 672 q 250 685 259 685 z m 251 570 l 165 336 l 352 336 l 352 353 l 270 570 z"},"f":{"x_min":0,"x_max":423,"ha":423,"o":"m 281 689 l 324 689 q 339 689 343 662 q 343 647 317 642 l 291 642 q 214 642 189 557 l 188 517 l 188 479 l 280 479 l 310 480 q 323 480 329 456 l 329 452 q 329 438 306 432 l 188 432 l 188 53 l 189 33 q 189 18 164 12 q 148 12 140 33 l 142 53 l 142 432 l 33 432 q 19 432 14 460 q 14 470 34 480 l 68 479 l 140 479 l 140 524 q 140 640 240 682 z"},"Q":{"x_min":0,"x_max":781,"ha":781,"o":"m 361 688 q 532 688 647 530 q 699 440 699 349 q 699 239 623 137 l 623 126 q 701 50 701 39 l 701 35 q 701 18 674 12 q 660 12 615 68 q 601 79 589 99 q 478 12 364 12 l 357 12 q 183 12 72 175 q 22 256 22 352 q 22 514 165 625 q 258 688 361 688 z m 70 347 q 70 207 193 112 q 270 60 357 60 l 366 60 q 462 60 552 131 q 469 221 463 230 l 463 239 q 468 261 484 261 l 490 261 q 502 261 542 213 l 581 174 l 594 174 q 651 262 651 351 q 651 508 507 601 q 437 641 361 641 q 217 641 122 516 q 70 441 70 347 z"},"w":{"x_min":0,"x_max":691,"ha":691,"o":"m 40 480 q 63 480 75 417 l 166 137 l 186 137 q 289 465 293 472 q 302 479 312 480 q 333 480 343 430 l 438 137 l 457 137 q 557 453 564 470 q 574 480 582 480 q 606 476 606 458 l 466 21 q 457 12 448 12 l 446 12 q 423 12 411 73 q 325 334 325 352 l 301 352 l 194 22 q 187 12 176 12 l 175 12 q 158 12 150 36 l 17 457 q 21 480 40 480 z"},"-":{"x_min":0,"x_max":327,"ha":327,"o":"m 58 304 l 253 304 q 272 304 278 277 q 272 252 253 252 l 58 252 q 37 252 33 280 q 40 304 58 304 z"},"E":{"x_min":0,"x_max":534,"ha":534,"o":"m 66 689 l 62 690 l 428 690 l 435 692 q 455 692 458 664 q 454 642 430 642 l 79 642 l 79 368 l 313 368 l 340 370 q 354 370 360 343 q 360 329 341 320 l 306 322 l 79 322 l 79 60 l 439 60 q 454 60 458 34 q 452 12 438 12 l 55 12 q 31 17 31 35 l 31 666 q 34 690 66 690 z"},"s":{"x_min":0,"x_max":473,"ha":473,"o":"m 205 484 q 324 484 391 379 l 392 368 l 392 367 q 392 349 367 345 q 351 345 329 382 q 273 435 205 435 q 115 435 62 348 l 60 335 q 60 299 124 293 q 331 243 348 237 q 394 207 394 161 l 394 159 q 394 91 290 32 q 246 12 194 12 q 91 12 18 110 q 13 118 13 123 l 13 134 q 13 149 42 152 q 52 152 81 111 q 133 62 202 62 q 284 62 339 141 l 344 155 l 344 159 q 344 193 301 198 q 62 251 50 262 q 10 293 10 336 q 10 397 103 457 q 154 484 205 484 z"},">":{"x_min":0,"x_max":495,"ha":495,"o":"m 94 535 q 104 535 203 470 q 411 342 425 330 q 429 324 429 316 l 429 312 q 429 293 389 276 q 106 96 100 96 l 93 96 q 67 101 67 121 l 67 123 q 67 144 123 171 l 351 316 q 84 480 74 490 q 67 500 67 507 q 72 535 94 535 z"},"l":{"x_min":0,"x_max":231,"ha":231,"o":"m 51 685 l 57 685 q 79 680 79 667 l 79 60 l 130 60 q 144 60 149 35 l 149 36 q 145 12 126 12 l 55 12 q 37 12 32 38 l 32 656 q 35 685 51 685 z"},"8":{"x_min":0,"x_max":475,"ha":475,"o":"m 206 690 q 284 690 338 621 q 369 579 369 529 l 369 520 q 369 452 295 385 q 399 311 399 211 q 399 112 308 45 q 257 12 202 12 l 193 12 q 99 12 29 106 q 0 160 0 211 q 0 314 112 393 q 61 433 47 486 q 42 499 42 520 l 42 529 q 42 615 125 667 q 167 690 206 690 z m 90 522 q 90 443 183 411 l 206 409 q 288 409 317 496 l 322 524 q 322 611 230 639 l 205 641 q 125 641 94 556 z m 48 213 q 48 106 157 66 q 173 60 202 60 q 302 60 345 171 l 350 201 l 350 220 q 350 307 251 353 q 223 362 200 362 q 92 362 54 250 z"},"\\":{"x_min":0,"x_max":337,"ha":337,"o":"m 24 744 l 26 744 q 54 744 71 668 q 250 191 319 -7 q 314 -33 294 -33 l 286 -33 q 266 -33 247 41 q 17 662 0 718 q 4 744 24 744 z"},"e":{"x_min":0,"x_max":569,"ha":569,"o":"m 253 488 q 391 488 467 357 q 493 307 493 247 l 493 238 q 488 213 470 213 l 69 213 q 96 120 173 78 q 217 61 256 61 q 302 61 356 88 l 363 88 q 385 84 385 67 l 385 62 q 385 28 265 12 l 253 12 q 125 12 47 132 q 17 188 17 250 q 17 381 140 458 q 200 488 253 488 z m 65 260 l 442 260 q 442 313 396 377 q 331 438 268 438 l 248 438 q 153 438 93 346 q 72 310 65 260 z"},"b":{"x_min":0,"x_max":601,"ha":601,"o":"m 58 687 l 61 687 q 83 682 83 667 l 83 399 q 181 493 276 493 q 369 493 444 423 q 517 347 517 253 q 517 118 388 40 q 333 12 282 12 l 267 12 q 170 12 86 104 q 36 171 36 266 l 36 667 q 36 682 58 687 z m 83 258 l 83 249 q 83 128 209 70 q 243 60 271 60 l 282 60 q 399 60 459 186 q 469 224 469 245 l 469 256 q 469 376 341 436 q 302 446 280 446 l 272 446 q 155 446 95 322 q 83 287 83 258 z"},"%":{"x_min":0,"x_max":786,"ha":786,"o":"m 208 689 l 218 689 q 293 689 347 620 q 377 574 377 527 q 377 421 267 371 q 236 362 216 362 l 212 362 q 117 362 66 455 q 49 490 49 525 q 49 633 163 682 q 186 689 208 689 z m 616 689 l 620 689 q 642 685 642 667 l 642 660 q 642 654 576 569 l 158 17 q 149 12 144 12 l 144 12 q 119 17 119 31 l 119 39 q 119 50 168 109 l 604 685 q 610 689 616 689 z m 97 528 l 97 523 q 97 441 188 411 l 208 410 l 218 410 q 298 410 328 502 l 330 525 q 330 609 241 639 l 215 643 q 131 643 101 556 z m 549 341 q 645 341 700 241 q 712 205 712 178 l 712 172 q 712 76 611 24 q 580 12 549 12 l 545 12 q 462 12 408 93 q 385 132 385 170 l 385 181 q 385 267 472 320 q 513 341 549 341 z m 431 178 q 431 96 517 64 l 544 60 l 553 60 q 631 60 663 149 l 665 168 l 665 181 q 665 263 570 292 l 549 293 q 462 293 433 197 z"},"m":{"x_min":0,"x_max":818,"ha":818,"o":"m 53 479 q 77 473 77 461 l 77 417 q 153 479 218 479 q 305 479 383 383 q 418 448 502 474 l 542 479 q 646 479 708 378 q 728 336 728 298 l 728 30 q 728 17 705 12 l 705 12 q 682 16 682 34 l 682 294 q 682 391 580 428 l 553 432 l 534 432 q 452 432 409 338 q 403 316 403 301 l 403 37 q 398 12 381 12 l 380 12 q 357 16 357 32 l 357 253 q 357 350 330 376 q 288 432 220 432 l 214 432 q 121 432 83 332 q 77 308 77 271 l 77 32 q 77 16 54 12 l 53 12 q 36 12 31 37 l 31 450 q 34 479 53 479 z"},"#":{"x_min":0,"x_max":652,"ha":652,"o":"m 473 687 q 495 680 495 667 l 495 662 q 495 649 455 460 l 524 460 l 541 462 q 558 462 562 437 q 558 413 539 413 l 445 413 l 423 294 l 505 294 q 536 292 536 271 q 531 247 500 247 l 500 248 l 505 247 l 412 247 q 370 34 364 22 q 356 11 345 11 l 343 11 q 321 16 321 32 l 321 33 l 364 247 l 244 247 q 229 247 206 117 q 188 25 184 23 q 174 9 164 9 q 138 15 138 33 l 182 247 l 116 247 l 105 245 q 88 245 83 272 l 83 273 q 83 289 109 294 l 193 294 l 216 413 l 136 413 q 111 417 111 436 q 115 460 144 460 l 144 460 l 149 460 l 227 460 q 267 674 269 674 q 282 685 292 685 q 311 685 314 661 l 275 460 l 407 460 q 447 670 452 676 q 462 687 473 687 z m 265 413 l 242 294 l 374 294 l 396 413 z"},",":{"x_min":0,"x_max":272,"ha":272,"o":"m 112 125 l 118 125 q 174 114 174 66 l 171 69 l 174 72 l 174 64 l 178 37 l 178 30 q 178 -52 94 -94 q 79 -104 71 -104 q 61 -104 58 -86 q 58 -74 91 -67 q 115 -53 138 -22 l 154 21 l 112 13 q 52 23 52 71 l 52 73 q 52 105 95 123 q 101 125 112 125 z"},"n":{"x_min":0,"x_max":584,"ha":584,"o":"m 61 487 q 85 481 85 468 l 85 401 q 181 487 270 487 q 368 487 443 406 q 499 337 499 263 l 499 31 q 499 17 475 12 q 452 17 452 35 l 452 239 q 452 384 325 431 q 294 439 270 439 l 265 439 q 158 439 101 330 q 85 295 85 224 l 85 33 q 85 16 62 12 l 61 12 q 43 12 38 38 l 38 457 q 42 487 61 487 z"},"h":{"x_min":0,"x_max":549,"ha":549,"o":"m 55 686 l 61 686 q 83 682 83 669 l 83 417 q 170 493 247 493 q 363 493 433 382 q 459 334 459 291 l 459 33 q 459 16 435 12 l 435 12 q 417 12 412 35 l 412 280 q 412 388 300 436 q 273 443 247 443 q 136 443 91 326 q 83 301 83 245 l 83 33 q 83 16 59 12 l 59 12 q 42 12 36 35 l 36 662 q 41 686 55 686 z"},"z":{"x_min":0,"x_max":497,"ha":497,"o":"m 51 480 l 56 480 l 369 480 l 384 482 q 405 475 405 463 l 405 453 q 405 446 367 404 l 91 58 l 384 58 q 405 54 405 38 l 405 32 q 405 16 382 12 l 41 12 q 22 12 19 39 q 19 48 89 129 l 333 436 l 65 436 l 39 434 q 19 441 19 457 q 22 480 51 480 z"},"B":{"x_min":0,"x_max":487,"ha":487,"o":"m 62 685 l 58 686 l 172 686 l 179 687 q 256 687 312 613 q 339 572 339 524 l 339 519 q 339 460 283 396 q 409 326 409 208 q 409 89 286 26 q 247 12 215 12 l 51 12 q 27 17 27 35 l 27 662 q 30 686 62 686 z m 74 638 l 74 407 l 154 407 q 253 407 282 479 q 290 500 290 521 l 290 526 q 290 606 197 636 l 157 638 z m 74 360 l 74 60 l 182 60 q 294 60 334 125 q 360 162 360 208 l 360 211 q 360 319 242 356 l 188 360 z"},"K":{"x_min":0,"x_max":543,"ha":543,"o":"m 53 688 l 54 688 q 78 684 78 667 l 78 319 q 437 677 436 677 l 449 679 l 450 679 q 472 675 472 658 l 472 652 q 472 640 438 612 l 202 375 l 467 47 l 468 40 l 468 35 q 468 18 445 14 l 444 14 q 428 14 393 66 l 167 341 l 78 250 l 78 33 q 78 16 54 12 l 53 12 q 35 12 30 38 l 30 663 q 35 688 53 688 z"},"R":{"x_min":0,"x_max":477,"ha":477,"o":"m 40 688 l 193 688 q 285 688 343 591 q 362 554 362 514 l 362 506 q 362 416 273 358 l 245 343 q 417 45 417 42 l 417 33 q 417 16 394 12 l 393 12 q 374 12 348 69 l 192 334 l 68 334 l 68 33 q 68 16 44 12 l 43 12 q 25 12 21 38 l 21 659 q 23 688 40 688 z m 68 643 l 68 381 l 186 381 q 282 381 312 485 l 314 502 l 314 518 q 314 595 229 634 q 205 643 156 643 z"},"T":{"x_min":0,"x_max":598,"ha":598,"o":"m 38 689 l 492 689 q 514 685 514 668 l 514 661 q 514 645 485 642 l 290 642 l 290 33 q 290 16 266 12 l 266 12 q 248 12 243 38 l 243 642 l 44 642 q 19 647 19 665 q 24 689 38 689 z"},"P":{"x_min":0,"x_max":470,"ha":470,"o":"m 42 690 l 210 690 q 303 690 368 594 q 393 545 393 506 l 393 493 q 393 406 314 343 q 261 307 210 307 l 70 307 l 70 33 q 70 17 46 12 l 45 12 q 27 12 22 38 l 22 661 q 25 690 42 690 z m 70 642 l 70 354 l 197 354 q 298 354 336 451 q 345 472 345 500 q 345 589 254 632 q 231 642 201 642 z"},"|":{"x_min":0,"x_max":495,"ha":495,"o":"m 234 778 l 237 778 q 259 774 259 757 l 259 -175 q 259 -188 232 -194 q 216 -194 210 -166 l 210 752 q 215 778 234 778 z"},"t":{"x_min":0,"x_max":344,"ha":344,"o":"m 120 667 l 125 667 q 146 662 146 650 l 146 477 l 233 477 l 250 479 q 264 479 270 453 q 270 438 250 431 l 226 433 l 146 433 l 146 158 q 146 80 201 61 l 244 58 l 265 58 q 278 58 283 35 l 283 35 q 279 12 261 12 l 223 12 q 146 12 107 98 q 101 118 101 147 l 101 433 l 53 433 l 26 431 q 6 438 6 454 q 10 477 39 477 l 39 477 l 44 477 l 101 477 l 101 639 q 104 667 120 667 z"},"M":{"x_min":0,"x_max":728,"ha":728,"o":"m 48 687 l 56 687 q 75 687 84 647 l 327 105 q 350 132 506 488 l 596 681 q 602 687 609 687 l 617 687 q 633 687 636 658 l 636 38 q 631 12 613 12 l 612 12 q 588 16 588 33 l 588 505 l 566 505 q 357 30 351 21 q 341 12 333 12 q 309 12 287 82 l 99 503 l 77 503 l 77 33 q 77 16 53 12 l 52 12 q 34 12 29 38 l 29 658 q 32 687 48 687 z"},"g":{"x_min":0,"x_max":590,"ha":590,"o":"m 255 486 q 361 486 438 398 q 492 325 492 261 l 490 199 l 490 -20 q 490 -76 401 -145 q 332 -189 255 -189 q 125 -189 41 -73 q 26 -50 26 -44 l 26 -39 q 26 -24 48 -20 l 52 -20 q 68 -20 83 -59 q 153 -147 255 -147 q 378 -147 441 -33 l 445 -7 l 445 104 q 348 14 261 14 l 246 14 q 151 14 69 104 q 19 174 19 250 q 19 365 121 443 q 186 486 255 486 z m 65 255 l 65 247 q 65 128 189 70 q 223 60 250 60 l 261 60 q 377 60 436 184 q 445 222 445 243 l 445 254 q 445 372 319 431 q 280 440 259 440 l 252 440 q 136 440 77 318 q 65 284 65 255 z"},"j":{"x_min":0,"x_max":320,"ha":320,"o":"m 201 611 q 225 606 225 587 q 225 567 200 564 q 179 570 179 582 l 179 593 q 179 605 201 611 z m 203 489 q 225 484 225 467 l 225 14 q 225 -113 104 -172 q 62 -187 36 -187 l 34 -185 l 21 -185 l 20 -187 l 24 -187 q 4 -187 0 -159 q 0 -144 28 -139 q 138 -139 175 -27 l 179 29 l 179 467 q 179 485 203 489 z"},"i":{"x_min":0,"x_max":210,"ha":210,"o":"m 73 616 q 97 609 97 597 l 97 586 q 97 571 70 567 q 56 567 50 591 q 55 616 73 616 z m 73 491 q 97 484 97 472 l 97 33 q 97 16 73 12 l 72 12 q 55 12 50 38 l 50 460 q 53 491 73 491 z"},"y":{"x_min":0,"x_max":446,"ha":446,"o":"m 354 482 q 376 478 376 462 l 376 460 q 375 451 208 54 q 130 -140 123 -149 q 117 -154 109 -156 q 87 -151 87 -139 l 87 -131 q 87 -127 164 58 l 164 64 l 2 459 l 2 457 q 6 480 24 480 q 43 480 62 420 q 172 158 178 136 l 197 136 q 333 469 339 475 q 347 482 354 482 z"},"@":{"x_min":0,"x_max":986,"ha":986,"o":"m 445 755 l 462 755 q 660 755 807 585 q 907 457 907 302 q 907 112 780 62 q 748 47 714 47 l 701 47 q 641 47 632 64 l 631 71 l 633 119 l 633 149 q 530 51 435 51 l 419 51 q 290 51 204 182 q 172 244 172 308 q 172 451 312 534 q 372 562 427 562 q 572 562 657 419 q 683 362 683 300 l 683 102 l 708 99 q 789 99 833 178 q 854 228 854 287 l 854 312 q 854 476 717 604 q 597 703 455 703 q 244 703 114 518 q 52 417 52 302 l 52 300 q 52 110 209 -18 q 321 -101 455 -101 q 567 -101 678 -34 l 683 -32 q 710 -38 710 -59 q 710 -98 555 -141 q 511 -152 468 -152 l 443 -152 q 278 -152 139 -27 q -2 115 -2 304 q -2 497 154 643 q 287 755 445 755 z m 224 310 l 224 304 q 224 181 348 117 q 388 103 419 103 l 435 103 q 539 103 606 207 q 631 255 631 300 l 631 308 q 631 428 513 491 q 471 510 427 510 l 425 510 q 299 510 236 379 q 224 338 224 310 z"},".":{"x_min":0,"x_max":272,"ha":272,"o":"m 119 122 q 161 122 173 71 l 173 61 q 173 32 133 15 q 128 12 119 12 l 117 12 q 73 12 63 69 q 63 103 105 119 q 110 122 119 122 z"},"p":{"x_min":0,"x_max":572,"ha":572,"o":"m 265 486 q 355 486 429 417 q 500 343 500 250 q 500 118 374 42 q 320 15 270 15 l 255 15 q 174 15 75 104 l 75 -172 q 75 -186 49 -191 q 35 -191 29 -166 l 29 234 q 29 414 198 476 q 218 482 265 486 z m 77 256 l 77 247 q 77 141 179 83 q 216 63 259 63 l 270 63 q 380 63 438 177 q 452 213 452 247 l 452 256 q 452 345 371 405 q 323 438 262 438 q 142 438 87 312 q 77 281 77 256 z"},"X":{"x_min":0,"x_max":635,"ha":635,"o":"m 33 689 l 41 689 q 55 689 66 668 l 284 389 l 516 687 q 520 689 526 689 l 532 689 q 548 689 553 666 l 553 665 q 553 653 506 599 l 312 350 l 550 46 l 553 36 l 553 36 q 548 12 530 12 l 528 12 q 512 12 498 42 l 284 314 l 51 16 q 46 12 39 12 l 38 12 q 14 17 14 35 l 14 41 q 14 48 91 142 l 254 354 q 20 651 16 660 l 14 667 q 20 689 33 689 z"},"*":{"x_min":0,"x_max":500,"ha":500,"o":"m 243 749 q 268 742 268 724 l 268 722 l 242 640 l 242 624 l 260 624 l 339 673 l 346 675 q 371 669 371 650 l 371 644 q 371 632 352 623 l 293 625 l 224 625 l 322 545 l 326 534 l 326 527 q 326 508 300 504 q 276 504 270 549 l 251 605 l 231 605 l 206 519 q 196 504 184 504 q 157 510 157 525 l 157 533 q 157 549 197 571 l 260 625 l 225 625 l 132 623 q 112 631 112 648 l 112 650 q 112 669 140 675 q 149 675 199 638 l 241 617 l 241 640 l 216 722 l 216 724 q 216 743 243 749 z"},"Y":{"x_min":0,"x_max":563,"ha":563,"o":"m 40 688 l 47 688 q 63 688 75 659 l 248 400 l 263 400 q 447 678 452 683 q 459 688 462 688 l 473 688 q 486 688 492 663 q 492 653 431 569 l 279 343 l 279 41 q 276 12 260 12 l 252 12 q 237 12 231 32 l 231 333 q 231 344 151 462 l 21 658 l 21 664 q 26 688 40 688 z"},"c":{"x_min":0,"x_max":506,"ha":506,"o":"m 255 489 q 347 489 421 420 q 424 416 424 410 l 424 409 q 419 385 401 385 l 399 385 q 390 385 347 418 q 303 440 260 440 l 250 440 q 135 440 77 321 q 63 281 63 249 q 63 133 183 73 q 219 59 259 59 q 326 59 389 111 l 399 114 l 403 114 q 420 114 424 90 l 424 90 q 424 61 315 19 q 278 12 260 12 l 246 12 q 150 12 67 103 q 17 174 17 250 q 17 367 120 446 q 185 489 255 489 z"},"!":{"x_min":0,"x_max":250,"ha":250,"o":"m 92 692 l 98 692 q 117 692 122 669 l 122 206 q 116 181 97 181 q 69 186 69 203 l 69 671 q 73 692 92 692 z m 88 88 l 91 88 q 130 83 130 56 l 130 45 q 130 20 94 12 l 90 12 q 61 12 54 50 q 62 88 88 88 z"},"/":{"x_min":0,"x_max":376,"ha":376,"o":"m 293 729 q 319 724 319 706 l 319 698 q 74 22 49 -38 q 40 -48 31 -48 l 27 -48 q 7 -48 2 -21 q 3 -11 271 716 q 283 729 293 729 z"},"[":{"x_min":0,"x_max":380,"ha":380,"o":"m 156 758 l 163 758 l 306 758 l 326 760 q 350 751 350 737 l 350 731 q 350 715 329 706 l 298 708 l 172 708 l 172 -143 l 326 -143 q 350 -148 350 -164 l 350 -169 q 350 -191 321 -194 l 148 -194 q 121 -189 121 -167 l 121 727 q 123 758 156 758 z"},"6":{"x_min":0,"x_max":464,"ha":464,"o":"m 266 689 q 281 689 287 663 q 287 653 244 586 l 150 423 l 150 404 l 191 407 l 207 407 q 301 407 368 312 q 397 259 397 210 q 397 112 307 45 q 256 12 201 12 l 192 12 q 98 12 29 106 q 0 159 0 210 q 0 277 50 343 l 247 683 q 257 689 266 689 z m 49 219 l 49 201 q 49 118 144 70 q 170 62 197 60 q 299 60 342 166 l 348 203 l 348 211 q 348 317 233 356 l 196 360 q 97 360 53 251 z"},"r":{"x_min":0,"x_max":452,"ha":452,"o":"m 71 491 q 96 485 96 472 l 96 404 q 193 491 280 491 q 327 491 378 469 q 388 459 388 450 l 388 449 q 384 426 365 426 q 315 442 288 442 l 277 442 q 161 442 107 322 q 96 290 96 250 l 96 33 q 96 16 72 12 l 71 12 q 53 12 48 38 l 48 460 q 52 491 71 491 z"},"2":{"x_min":0,"x_max":477,"ha":477,"o":"m 198 689 q 292 689 362 605 q 398 550 398 491 q 398 400 307 314 l 84 60 l 386 60 q 403 60 407 36 q 404 12 384 12 l 27 12 q 4 17 4 35 l 4 37 q 4 49 35 79 l 322 406 q 349 443 349 491 q 349 593 243 633 q 225 639 202 639 l 196 639 q 98 639 55 535 q 49 513 47 487 q 39 470 26 470 l 24 470 q 0 474 0 491 q 0 595 99 661 q 152 689 198 689 z"},"{":{"x_min":0,"x_max":495,"ha":495,"o":"m 322 764 l 390 764 q 413 764 418 745 l 418 735 q 418 722 396 716 l 327 716 q 279 716 279 667 l 279 384 q 279 365 254 324 q 281 293 281 262 l 281 -24 q 281 -66 329 -66 l 396 -66 q 418 -71 418 -87 l 418 -95 q 418 -109 394 -114 l 323 -114 q 258 -114 235 -42 l 233 -20 l 233 260 q 233 294 196 302 l 155 302 q 129 307 129 325 q 134 350 148 350 l 178 350 q 231 350 231 388 l 231 668 q 231 740 303 762 z"},"9":{"x_min":0,"x_max":475,"ha":475,"o":"m 198 688 q 301 688 367 590 q 395 538 395 492 q 395 418 333 346 l 89 18 q 81 12 75 12 q 49 17 49 37 q 49 49 105 117 l 237 296 l 210 296 l 199 294 q 87 294 22 401 q 0 448 0 492 q 0 602 107 666 q 153 688 198 688 z m 49 500 l 49 483 q 49 403 136 355 q 164 343 198 343 q 285 343 330 424 q 346 455 346 490 l 346 492 q 346 594 241 633 q 226 640 200 640 l 189 640 q 104 640 57 544 q 49 515 49 500 z"}," ":{"x_min":0,"x_max":248,"ha":248,"o":""},"I":{"x_min":0,"x_max":263,"ha":263,"o":"m 53 694 l 61 693 l 132 693 l 138 694 q 163 689 163 671 q 159 645 140 645 l 120 645 l 120 61 l 144 61 q 158 61 163 36 l 163 36 q 159 12 140 12 l 53 12 q 29 17 29 35 l 29 36 q 34 61 49 61 l 72 61 l 72 645 l 52 645 q 32 645 29 672 l 29 674 q 29 688 53 694 z"},"H":{"x_min":0,"x_max":579,"ha":579,"o":"m 42 688 l 47 688 q 70 683 70 670 l 70 366 l 442 366 l 442 664 q 446 688 463 688 l 467 688 q 489 683 489 667 l 489 31 q 489 17 465 12 l 465 12 q 442 17 442 35 l 442 321 l 70 321 l 70 33 q 70 16 46 12 l 45 12 q 27 12 22 38 l 22 659 q 25 688 42 688 z"},"4":{"x_min":0,"x_max":539,"ha":539,"o":"m 338 684 l 350 684 q 361 684 369 663 l 367 647 l 367 267 l 437 267 l 453 269 q 469 269 475 243 q 475 228 454 220 l 429 222 l 367 222 l 367 31 q 367 17 343 12 l 343 12 q 319 17 319 35 l 319 222 l 59 222 l 18 220 q 0 227 0 241 l 0 248 q 0 255 15 267 q 311 651 326 676 q 333 684 338 684 z m 75 267 l 319 267 l 319 585 z"},"~":{"x_min":0,"x_max":495,"ha":495,"o":"m 170 403 l 182 403 q 223 403 280 365 l 302 359 l 317 359 l 363 373 q 397 366 397 338 q 397 302 319 292 l 304 292 q 263 292 206 331 l 183 336 l 168 336 l 124 325 l 122 325 q 91 331 91 355 l 91 362 q 91 387 134 397 q 151 403 170 403 z"},"D":{"x_min":0,"x_max":583,"ha":583,"o":"m 62 688 l 58 689 l 154 689 l 174 691 q 326 691 438 559 q 510 466 510 348 q 510 186 367 75 q 276 12 176 12 l 51 12 q 27 17 27 35 l 27 666 q 30 689 62 689 z m 75 644 l 75 60 l 167 60 q 350 60 439 238 q 462 298 462 354 q 462 487 345 585 q 271 644 129 644 z"},"^":{"x_min":0,"x_max":460,"ha":460,"o":"m 178 688 l 183 688 q 202 688 227 637 q 339 468 339 462 l 339 450 q 339 434 309 429 q 293 429 252 505 l 179 613 l 63 435 q 52 429 44 429 q 28 429 21 458 q 21 468 59 521 q 158 679 165 683 z"},"0":{"x_min":0,"x_max":483,"ha":483,"o":"m 206 689 q 318 689 379 568 q 413 462 413 373 l 413 331 q 413 220 368 109 q 305 12 209 12 l 204 12 q 100 12 40 124 q 0 225 0 349 l 0 354 q 0 487 46 592 q 111 689 206 689 z m 42 360 l 42 340 q 42 209 90 119 q 140 58 202 58 l 208 58 q 343 58 366 260 q 371 291 373 353 q 373 462 335 563 q 285 644 208 644 q 114 644 70 542 q 42 447 42 360 z"},"F":{"x_min":0,"x_max":503,"ha":503,"o":"m 62 689 l 58 690 l 424 690 l 431 692 q 451 692 455 664 q 450 642 426 642 l 75 642 l 75 368 l 310 368 l 336 370 q 351 370 356 343 q 356 329 337 320 l 302 322 l 75 322 l 75 45 l 76 36 q 71 12 54 12 l 51 12 q 27 17 27 35 l 27 666 q 30 690 62 690 z"},"`":{"x_min":0,"x_max":367,"ha":367,"o":"m 127 677 l 132 677 q 145 677 176 640 q 260 560 260 553 l 262 544 q 257 520 237 520 l 233 520 q 217 520 162 583 q 103 633 103 650 l 103 656 q 103 671 127 677 z"},"k":{"x_min":0,"x_max":516,"ha":516,"o":"m 57 688 l 62 688 q 85 684 85 671 l 85 284 q 365 469 406 492 l 412 492 q 431 492 435 465 q 435 451 381 422 q 240 327 226 324 l 226 308 l 433 44 l 435 38 l 435 38 q 430 14 412 14 l 408 14 q 393 14 353 72 l 183 284 l 172 284 l 85 229 l 85 33 q 85 16 62 12 l 61 12 q 43 12 38 35 l 38 664 q 42 688 57 688 z"},"u":{"x_min":0,"x_max":580,"ha":580,"o":"m 57 489 q 81 483 81 470 l 81 274 q 81 142 158 96 q 206 59 266 59 q 380 59 438 177 q 450 215 450 252 l 450 464 q 455 489 473 489 q 497 484 497 467 l 497 31 q 497 17 473 12 q 450 17 450 35 l 450 82 l 431 82 q 354 12 271 12 l 258 12 q 150 12 71 119 q 34 175 34 260 l 34 459 q 38 489 57 489 z"},"]":{"x_min":0,"x_max":370,"ha":370,"o":"m 36 760 l 62 758 l 198 758 l 218 760 q 242 753 242 735 l 242 -173 q 242 -189 216 -194 l 38 -194 q 16 -194 13 -165 l 13 -164 q 13 -149 38 -141 l 46 -143 l 190 -143 l 190 708 l 70 708 l 35 706 q 13 714 13 733 q 13 751 36 760 z"},"U":{"x_min":0,"x_max":570,"ha":570,"o":"m 39 688 l 44 688 q 67 683 67 670 l 67 277 q 67 143 145 97 q 192 60 253 60 q 369 60 427 178 q 439 215 439 255 l 439 664 q 443 688 460 688 l 464 688 q 486 683 486 667 l 486 236 q 486 132 386 54 q 323 12 258 12 l 246 12 q 137 12 56 120 q 20 177 20 262 l 20 659 q 22 688 39 688 z"},"o":{"x_min":0,"x_max":571,"ha":571,"o":"m 255 485 q 346 485 420 416 q 491 341 491 249 q 491 116 365 40 q 311 12 260 12 l 246 12 q 151 12 69 102 q 19 173 19 249 q 19 364 121 442 q 186 485 255 485 z m 67 254 l 67 245 q 67 138 169 80 q 207 61 250 61 l 260 61 q 371 61 429 175 q 443 211 443 245 l 443 254 q 443 343 362 403 q 314 437 253 437 q 132 437 77 311 q 67 280 67 254 z"},"N":{"x_min":0,"x_max":645,"ha":645,"o":"m 38 687 l 45 687 q 61 687 75 655 q 104 624 506 99 l 506 665 q 510 687 527 687 l 532 687 q 549 687 553 663 l 553 37 q 553 17 526 12 q 512 12 472 72 l 66 590 l 66 35 q 66 18 42 14 l 42 14 q 23 14 19 40 l 19 658 q 21 687 38 687 z"},"+":{"x_min":0,"x_max":495,"ha":495,"o":"m 238 533 l 244 533 q 262 533 267 507 l 267 387 l 382 387 q 415 384 415 361 q 410 335 378 335 l 378 335 l 381 335 l 267 335 l 267 212 q 262 187 242 187 l 241 187 q 215 192 215 208 l 215 335 l 102 335 l 90 333 q 72 333 66 363 l 66 364 q 66 380 95 387 l 215 387 l 215 509 q 220 533 238 533 z"},"G":{"x_min":0,"x_max":631,"ha":631,"o":"m 352 689 q 459 689 544 630 q 550 622 550 615 l 550 613 q 550 595 524 590 q 522 590 458 620 q 413 638 370 638 l 340 638 q 232 638 134 534 q 70 446 70 354 l 70 347 q 70 197 208 103 q 281 62 354 62 l 361 62 q 432 62 510 104 l 510 291 l 365 291 q 342 295 342 314 l 342 314 q 346 338 364 338 l 536 338 q 553 338 557 314 l 557 111 q 557 74 542 66 q 450 12 364 12 l 354 12 q 187 12 74 167 q 21 255 21 351 q 21 521 172 632 q 265 689 352 689 z"},"q":{"x_min":0,"x_max":575,"ha":575,"o":"m 256 481 q 347 481 421 413 q 491 344 491 230 l 491 -167 q 485 -193 470 -193 q 445 -188 445 -174 l 445 102 q 348 12 262 12 l 248 12 q 153 12 72 102 q 22 172 22 247 q 22 361 123 438 q 188 481 256 481 z m 69 252 l 69 243 q 69 137 171 80 q 208 60 251 60 l 262 60 q 372 60 430 173 q 443 209 443 243 l 443 252 q 443 340 363 400 q 315 434 254 434 q 135 434 80 309 q 69 278 69 252 z"},"d":{"x_min":0,"x_max":586,"ha":586,"o":"m 467 687 l 473 687 q 496 683 496 669 l 496 304 l 498 242 q 498 173 441 98 q 362 12 263 12 l 248 12 q 151 12 68 104 q 17 176 17 253 q 17 370 121 450 q 187 493 257 493 q 349 493 450 402 l 450 639 l 448 666 q 455 687 467 687 z m 64 258 l 64 249 q 64 128 190 70 q 224 60 251 60 l 263 60 q 380 60 440 186 q 450 224 450 245 l 450 256 q 450 376 322 436 q 283 446 261 446 l 253 446 q 136 446 76 322 q 64 287 64 258 z"},"1":{"x_min":0,"x_max":277,"ha":277,"o":"m 139 689 l 141 689 q 164 685 164 670 l 164 36 q 159 12 141 12 l 140 12 q 116 17 116 31 l 116 633 q 52 612 39 612 q 25 612 20 635 l 20 643 q 20 660 84 673 z"},"5":{"x_min":0,"x_max":495,"ha":495,"o":"m 66 686 l 83 684 l 364 684 q 383 684 389 657 q 389 639 361 633 l 94 633 l 94 424 l 211 424 q 327 424 393 304 q 414 255 414 218 q 414 111 312 41 q 260 12 209 12 l 204 12 q 83 12 16 137 q 0 184 0 214 q 9 238 26 238 q 54 238 54 184 q 81 106 136 79 q 177 62 206 62 q 310 62 353 167 q 361 189 361 218 q 361 331 241 370 l 195 374 l 66 374 q 50 374 44 394 l 44 665 q 44 677 66 686 z"}}}
